# xmcd
#
# Track frame offsets: 
#        150
#        14360
#        29059
#        42415
#        56173
#        84208
#        99244
#        114122
#        131472
#        147087
#        162091
#        179144
#        193547
#        210009
#        224357
#        241547
#        259192
#        273622
#        306121
#        324095
#
# Disc length: 4496 seconds
#
# Revision: 0
# Processed by: cddbd v1.5.2PL0 Copyright (c) Steve Scherf et al.
# Submitted via: ExactAudioCopy v1.0b3
#
DISCID=0c118e14
DTITLE=Various Artist - DJ Sounds Vol. 1 - CD 1
DYEAR=1900
DGENRE=
TTITLE0=Topmodelz - Your Love (Single Mix)
TTITLE1=Bass-T - Check This!
TTITLE2=Paffendorf Vs. The Real Booty Babes - Where Are You 2007 (Radi
TTITLE2=o Version)
TTITLE3=Lasgo - Lying (Radio Edit)
TTITLE4=Kate Ryan - Alive (Basto! Loves Kate Remix)
TTITLE5=Groovestylerz - We Are Family (2-4 Grooves Radio Mix)
TTITLE6=DJ Dean - If I Could Be You (Neo Cortex Radio Mix)
TTITLE7=Tube Tonic and DJ Shandar - The Secret (Single Edit)
TTITLE8=Central Seven - If I Were You (Radio Mix)
TTITLE9=Picco - Back To Hawaii (Hands Up Radio Mix)
TTITLE10=Steve Twain Pres. Escape One - Numero Uno (Steve Twain´s Late
TTITLE10=Night Radio Mix)
TTITLE11=Discotronic - Tricky Disco (Single Edit)
TTITLE12=Melanie Flash - Halfway To Heaven (Radio Edit)
TTITLE13=Jens O. - Find Your Way (Hands Up Radio Mix)
TTITLE14=Keira Green - All Out Of Love (Rob Mayth Radio Mix)
TTITLE15=Mainfield - Feel The Love (Original Mix Edit)
TTITLE16=Desperate Deejays - Sound Of E
TTITLE17=D-Jean-D - Follow Me (Original Mix)
TTITLE18=Cavé and Prey - Energy (Megara Vs. DJ Lee Radio Mix)
TTITLE19=4 Strings Feat. Tina Cousins - Curious (Original Radio Edit)
EXTD=
EXTT0=
EXTT1=
EXTT2=
EXTT3=
EXTT4=
EXTT5=
EXTT6=
EXTT7=
EXTT8=
EXTT9=
EXTT10=
EXTT11=
EXTT12=
EXTT13=
EXTT14=
EXTT15=
EXTT16=
EXTT17=
EXTT18=
EXTT19=
PLAYORDER=
